<svg xmlns="http://www.w3.org/2000/svg" viewBox="0 0 800 600" width="800" height="600">
  <defs>
    <linearGradient id="g" gradientTransform="rotate(237 .5 .5)">
      <stop offset="0" stop-color="#7356BF"/>
      <stop offset="1" stop-color="#4B3780"/>
    </linearGradient>
    <radialGradient id="spot" cx=".5" cy=".55" r=".5">
      <stop offset="0" stop-color="#fff" stop-opacity=".35"/>
      <stop offset="1" stop-color="#fff" stop-opacity="0"/>
    </radialGradient>
  </defs>
  <rect width="800" height="600" fill="url(#g)"/>
  <circle cx="261" cy="258" r="92" fill="#fff" opacity="0.08"/>
  <circle cx="550" cy="144" r="41" fill="#fff" opacity="0.06"/>
  <circle cx="322" cy="458" r="53" fill="#fff" opacity="0.10"/>
  <circle cx="457" cy="369" r="70" fill="#fff" opacity="0.05"/>
  <circle cx="291" cy="226" r="81" fill="#fff" opacity="0.04"/>
  <circle cx="468" cy="488" r="22" fill="#fff" opacity="0.09"/>
  <circle cx="711" cy="458" r="95" fill="#fff" opacity="0.07"/>
  <circle cx="536" cy="419" r="68" fill="#fff" opacity="0.05"/>
  <circle cx="496" cy="562" r="78" fill="#fff" opacity="0.04"/>
  <circle cx="758" cy="325" r="46" fill="#fff" opacity="0.12"/>
  <circle cx="218" cy="523" r="62" fill="#fff" opacity="0.06"/>
  <circle cx="138" cy="481" r="100" fill="#fff" opacity="0.09"/>
  <circle cx="332" cy="370" r="74" fill="#fff" opacity="0.10"/>
  <circle cx="670" cy="338" r="32" fill="#fff" opacity="0.12"/>
  <ellipse cx="400" cy="320" rx="300" ry="230" fill="url(#spot)"/>
  <g opacity="0.9"><rect x="76" y="76" width="111" height="111" rx="22" fill="#fff" fill-opacity="0.16"/><g transform="translate(90 90) scale(3.4583333333333335)" fill="none" stroke="#fff" stroke-width="1.8" stroke-linecap="round" stroke-linejoin="round"><path d="M20.38 3.46 16 2a4 4 0 0 1-8 0L3.62 3.46a2 2 0 0 0-1.34 2.23l.58 3.47a1 1 0 0 0 .99.84H6v10c0 1.1.9 2 2 2h8a2 2 0 0 0 2-2V10h2.15a1 1 0 0 0 .99-.84l.58-3.47a2 2 0 0 0-1.34-2.23z" /></g></g>
  <g opacity="0.9"><rect x="596" y="56" width="86" height="86" rx="22" fill="#fff" fill-opacity="0.16"/><g transform="translate(610 70) scale(2.4166666666666665)" fill="none" stroke="#fff" stroke-width="1.8" stroke-linecap="round" stroke-linejoin="round"><path d="M21.3 15.3a2.4 2.4 0 0 1 0 3.4l-2.6 2.6a2.4 2.4 0 0 1-3.4 0L2.7 8.7a2.41 2.41 0 0 1 0-3.4l2.6-2.6a2.41 2.41 0 0 1 3.4 0Z" />
  <path d="m14.5 12.5 2-2" />
  <path d="m11.5 9.5 2-2" />
  <path d="m8.5 6.5 2-2" />
  <path d="m17.5 15.5 2-2" /></g></g>
  <g opacity="0.9"><rect x="66" y="406" width="97" height="97" rx="22" fill="#fff" fill-opacity="0.16"/><g transform="translate(80 420) scale(2.875)" fill="none" stroke="#fff" stroke-width="1.8" stroke-linecap="round" stroke-linejoin="round"><path d="M17 13.44 4.442 17.082A2 2 0 0 0 4.982 21H19a2 2 0 0 0 .558-3.921l-1.115-.32A2 2 0 0 1 17 14.837V7.66" />
  <path d="m7 10.56 12.558-3.642A2 2 0 0 0 19.018 3H5a2 2 0 0 0-.558 3.921l1.115.32A2 2 0 0 1 7 9.163v7.178" /></g></g>
  <g opacity="0.9"><rect x="626" y="416" width="86" height="86" rx="22" fill="#fff" fill-opacity="0.16"/><g transform="translate(640 430) scale(2.4166666666666665)" fill="none" stroke="#fff" stroke-width="1.8" stroke-linecap="round" stroke-linejoin="round"><path d="M12 22a1 1 0 0 1 0-20 10 9 0 0 1 10 9 5 5 0 0 1-5 5h-2.25a1.75 1.75 0 0 0-1.4 2.8l.3.4a1.75 1.75 0 0 1-1.4 2.8z" />
  <circle cx="13.5" cy="6.5" r=".5" fill="currentColor" />
  <circle cx="17.5" cy="10.5" r=".5" fill="currentColor" />
  <circle cx="6.5" cy="12.5" r=".5" fill="currentColor" />
  <circle cx="8.5" cy="7.5" r=".5" fill="currentColor" /></g></g>
  <g opacity="0.9"><rect x="346" y="26" width="113" height="113" rx="22" fill="#fff" fill-opacity="0.16"/><g transform="translate(360 40) scale(3.5416666666666665)" fill="none" stroke="#fff" stroke-width="1.8" stroke-linecap="round" stroke-linejoin="round"><circle cx="6" cy="6" r="3" />
  <path d="M8.12 8.12 12 12" />
  <path d="M20 4 8.12 15.88" />
  <circle cx="6" cy="18" r="3" />
  <path d="M14.8 14.8 20 20" /></g></g>
  <ellipse cx="400" cy="470" rx="150" ry="18" fill="#000" opacity=".18"/>
  <circle cx="400" cy="300" r="150" fill="#fff"/>
  <g transform="translate(300 200) scale(8.333333333333334)" fill="none" stroke="#4B3780" stroke-width="1.6" stroke-linecap="round" stroke-linejoin="round"><circle cx="6" cy="6" r="3" />
  <path d="M8.12 8.12 12 12" />
  <path d="M20 4 8.12 15.88" />
  <circle cx="6" cy="18" r="3" />
  <path d="M14.8 14.8 20 20" /></g>
</svg>